<svg version="1.1" id="Layer_1" xmlns="http://www.w3.org/2000/svg" xmlns:xlink="http://www.w3.org/1999/xlink" x="0px" y="0px" viewBox="0 0 500 500" style="width: 186px;" xml:space="preserve" data-imageid="accountant-25" imageName="Accountant" class="illustrations_image">
<style type="text/css">
	.st0_accountant-25{fill:#CFE217;}
	.st1_accountant-25{opacity:0.32;fill:url(#SVGID_1_);enable-background:new    ;}
	.st2_accountant-25{fill:#68E1FD;}
	.st3_accountant-25{opacity:0.43;fill:#205150;enable-background:new    ;}
	.st4_accountant-25{opacity:0.8;fill:#205150;enable-background:new    ;}
	.st5_accountant-25{fill:#FFFFFF;}
	.st6_accountant-25{fill:#FE6162;}
	.st7_accountant-25{opacity:0.5;fill:#205150;enable-background:new    ;}
	.st8_accountant-25{fill:#F7931E;}
	.st9_accountant-25{fill:#FFD008;}
	.st10_accountant-25{opacity:0.32;fill:url(#SVGID_00000080928330601719286410000017531757341078273161_);enable-background:new    ;}
	.st11_accountant-25{opacity:0.32;fill:url(#SVGID_00000006668891912264449210000017962064248345552061_);enable-background:new    ;}
	.st12_accountant-25{opacity:0.53;fill:#FFFFFF;enable-background:new    ;}
	.st13_accountant-25{opacity:0.32;fill:url(#SVGID_00000017492311745953813670000009561001484623981965_);enable-background:new    ;}
	.st14_accountant-25{fill:#FFC3CA;}
	.st15_accountant-25{fill:#7F252B;}
	.st16_accountant-25{opacity:0.32;fill:url(#SVGID_00000004530223312487093330000007261189285704098464_);enable-background:new    ;}
	.st17_accountant-25{opacity:0.1;fill:#2A1700;enable-background:new    ;}
	.st18_accountant-25{fill:#2A1700;}
	.st19_accountant-25{fill:#205150;}
</style>
<path id="field_accountant-25" class="st0_accountant-25" d="M243.2,409.3L29.1,282.7c-6.8-3.8-12.7-10.1-6-14.2l214.9-123.8c3.2-2,8.1-3.3,11.4-1.4l224.8,130.4&#10;&#9;c6.8,4,8,15,1.2,19L271.4,409.1C262.7,414.2,252,414.2,243.2,409.3z"/>
<g id="calculator_accountant-25">
	
		<linearGradient id="SVGID_1_-accountant-25" gradientUnits="userSpaceOnUse" x1="417.9963" y1="182.1771" x2="400.3063" y2="204.7571" gradientTransform="matrix(1 0 0 -1 0 502)">
		<stop offset="0" style="stop-color:#CFE217;stop-opacity:3.000000e-02"/>
		<stop offset="0.99" style="stop-color:#2A1700"/>
	</linearGradient>
	<polygon class="st1_accountant-25" points="341.4,313.3 388.7,341.3 468.9,293.5 416.5,260.7 &#9;"/>
	<path class="st2_accountant-25 targetColor" d="M305.5,284.6v4.9c0,1.7,0.9,3.2,2.4,4.1l54.6,32c1.7,0.7,3.6,0.6,5.2-0.3l53.2-30.4c0.6-0.4,1.2-0.8,1.6-1.4&#10;&#9;&#9;l11.6-13.7c0.5-0.7,2.7-2.8,2.4-5l-1-4.8" style="fill: rgb(104, 225, 253);"/>
	<path class="st3_accountant-25" d="M305.5,284.6v4.9c0,1.7,0.9,3.2,2.4,4.1l54.6,32c1.7,0.7,3.6,0.6,5.2-0.3l53.2-30.4c0.6-0.4,1.2-0.8,1.6-1.4&#10;&#9;&#9;l11.6-13.7c0.5-0.7,2.7-2.8,2.4-5l-1-4.8"/>
	<path class="st2_accountant-25 targetColor" d="M306.8,286.5l55,32.1c2.2,1.3,4.9,1.3,7.1,0l52.7-30.6l13.3-16.1c0.8-1,0.7-2.4-0.3-3.2&#10;&#9;&#9;c-0.1-0.1-0.2-0.1-0.3-0.2l-58.6-34.1c-1.1-0.6-2.4-0.4-3.2,0.6l-14.3,17.2l-51.3,29.5c-1.3,0.7-1.8,2.4-1.1,3.7&#10;&#9;&#9;C306,285.9,306.4,286.2,306.8,286.5z" style="fill: rgb(104, 225, 253);"/>
	<path class="st4_accountant-25" d="M362.5,250.2l11-12.5c0.6-0.7,1.6-0.8,2.4-0.4l56.1,32.4c0.9,0.5,1.2,1.7,0.7,2.6c-0.1,0.1-0.1,0.2-0.2,0.3&#10;&#9;&#9;l-10.7,12.4c-0.6,0.7-1.6,0.8-2.4,0.4L363,253.1c-0.9-0.5-1.3-1.7-0.7-2.6C362.3,250.4,362.4,250.3,362.5,250.2z"/>
	<polygon class="st5_accountant-25" points="364.7,251.4 371.6,243.7 426.8,275.7 420.3,283.7 &#9;"/>
	<path class="st6_accountant-25" d="M398.5,287.5l7.8,4.4c0.3,0.2,0.7,0.2,1.1,0l4.5-2.6c0.5-0.3,0.7-0.9,0.4-1.5c-0.1-0.2-0.2-0.3-0.4-0.4&#10;&#9;&#9;L404,283c-0.3-0.2-0.7-0.2-1.1,0l-4.5,2.6c-0.5,0.3-0.7,0.9-0.5,1.4C398.1,287.3,398.3,287.4,398.5,287.5z"/>
	<path class="st7_accountant-25" d="M388.3,293.5l7.8,4.4c0.3,0.2,0.7,0.2,1.1,0l4.5-2.6c0.5-0.3,0.7-0.9,0.4-1.5c-0.1-0.2-0.2-0.3-0.4-0.4&#10;&#9;&#9;l-7.8-4.4c-0.3-0.2-0.7-0.2-1.1,0l-4.5,2.6c-0.5,0.3-0.7,0.9-0.4,1.5C388,293.3,388.1,293.4,388.3,293.5z"/>
	<path class="st7_accountant-25" d="M378.2,299.1l7.8,4.4c0.3,0.2,0.7,0.2,1.1,0l4.5-2.6c0.5-0.3,0.7-0.9,0.4-1.5c-0.1-0.2-0.2-0.3-0.4-0.4&#10;&#9;&#9;l-7.8-4.4c-0.3-0.2-0.7-0.2-1.1,0l-4.5,2.6c-0.5,0.3-0.7,0.9-0.4,1.5C377.9,298.9,378.1,299,378.2,299.1z"/>
	<path class="st7_accountant-25" d="M368.1,305.6l7.8,4.4c0.3,0.2,0.7,0.2,1.1,0l4.5-2.6c0.5-0.3,0.7-1,0.4-1.5c-0.1-0.2-0.2-0.3-0.4-0.4l-7.8-4.4&#10;&#9;&#9;c-0.3-0.2-0.7-0.2-1.1,0l-4.5,2.6c-0.5,0.3-0.7,0.9-0.4,1.5C367.8,305.3,367.9,305.5,368.1,305.6z"/>
	<path class="st7_accountant-25" d="M358,311.5l7.8,4.4c0.3,0.2,0.7,0.2,1.1,0l4.5-2.6c0.5-0.3,0.7-0.9,0.4-1.5c-0.1-0.2-0.2-0.3-0.4-0.4l-7.8-4.5&#10;&#9;&#9;c-0.3-0.2-0.7-0.2-1.1,0l-4.5,2.7c-0.5,0.3-0.7,0.9-0.4,1.5C357.7,311.3,357.8,311.5,358,311.5z"/>
	<path class="st6_accountant-25" d="M351.5,260.2l7.8,4.4c0.3,0.2,0.7,0.2,1.1,0l4.5-2.6c0.5-0.3,0.7-0.9,0.4-1.5c-0.1-0.2-0.2-0.3-0.4-0.4&#10;&#9;&#9;l-7.8-4.4c-0.3-0.2-0.7-0.2-1.1,0l-4.5,2.6c-0.5,0.3-0.7,0.9-0.4,1.5C351.2,259.9,351.3,260.1,351.5,260.2z"/>
	<path class="st7_accountant-25" d="M373.9,273.8l7.8,4.4c0.3,0.2,0.7,0.2,1.1,0l4.5-2.6c0.5-0.3,0.7-0.9,0.4-1.5c-0.1-0.2-0.2-0.3-0.4-0.4&#10;&#9;&#9;l-7.8-4.4c-0.3-0.2-0.7-0.2-1.1,0l-4.5,2.6c-0.5,0.3-0.7,0.9-0.4,1.5C373.5,273.5,373.7,273.7,373.9,273.8z"/>
	<path class="st4_accountant-25" d="M363,266.9l7.8,4.4c0.3,0.2,0.7,0.2,1.1,0l4.5-2.6c0.5-0.3,0.7-0.9,0.4-1.5c-0.1-0.2-0.2-0.3-0.4-0.4l-7.8-4.4&#10;&#9;&#9;c-0.3-0.2-0.7-0.2-1.1,0l-4.5,2.6c-0.5,0.3-0.7,0.9-0.4,1.5C362.7,266.7,362.8,266.8,363,266.9z"/>
	<path class="st7_accountant-25" d="M385.5,280.3l7.8,4.4c0.3,0.2,0.7,0.2,1.1,0l4.5-2.6c0.5-0.3,0.7-1,0.4-1.5c-0.1-0.2-0.2-0.3-0.4-0.4l-7.8-4.4&#10;&#9;&#9;c-0.3-0.2-0.7-0.2-1.1,0l-4.5,2.6c-0.5,0.3-0.7,1-0.4,1.5C385.1,280,385.3,280.2,385.5,280.3z"/>
	<path class="st7_accountant-25" d="M366.6,292.1l7.8,4.4c0.3,0.2,0.7,0.2,1.1,0l4.5-2.6c0.5-0.3,0.7-0.9,0.4-1.5c-0.1-0.2-0.2-0.3-0.4-0.4&#10;&#9;&#9;l-7.8-4.4c-0.3-0.2-0.7-0.2-1.1,0l-4.5,2.6c-0.5,0.3-0.7,0.9-0.4,1.5C366.3,291.9,366.5,292,366.6,292.1z"/>
	<path class="st7_accountant-25" d="M376.4,286.4l7.8,4.4c0.3,0.2,0.7,0.2,1.1,0l4.5-2.6c0.5-0.3,0.7-0.9,0.4-1.5c-0.1-0.2-0.2-0.3-0.4-0.4&#10;&#9;&#9;l-7.8-4.4c-0.3-0.2-0.7-0.2-1.1,0l-4.5,2.6c-0.5,0.3-0.7,0.9-0.4,1.5C376.1,286.2,376.3,286.3,376.4,286.4z"/>
	<path class="st6_accountant-25" d="M345.4,303.1c-0.3,0.2-0.4,0.6-0.2,0.9c0.1,0.1,0.1,0.2,0.2,0.2c1.8,1.1,5.9,3.3,7.8,4.2&#10;&#9;&#9;c0.6,0.3,1.3,0.3,1.9,0l14.9-8.5c0.5-0.3,0.6-0.9,0.3-1.4c-0.1-0.1-0.2-0.2-0.3-0.3l-8-4.3c-0.6-0.3-1.3-0.4-1.9,0L345.4,303.1z"/>
	<path class="st4_accountant-25" d="M341.9,266l7.8,4.4c0.3,0.2,0.7,0.2,1.1,0l4.5-2.6c0.5-0.3,0.7-0.9,0.4-1.5c-0.1-0.2-0.2-0.3-0.4-0.4l-7.8-4.4&#10;&#9;&#9;c-0.3-0.2-0.7-0.2-1.1,0l-4.5,2.6c-0.5,0.3-0.7,0.9-0.4,1.5C341.6,265.8,341.8,265.9,341.9,266z"/>
	<path class="st4_accountant-25" d="M332.1,285.2l7.8,4.4c0.3,0.2,0.7,0.2,1.1,0l4.5-2.6c0.5-0.3,0.7-1,0.4-1.5c-0.1-0.2-0.2-0.3-0.4-0.4l-7.8-4.4&#10;&#9;&#9;c-0.3-0.2-0.7-0.2-1.1,0l-4.5,2.6c-0.5,0.3-0.7,0.9-0.4,1.5C331.8,284.9,331.9,285.1,332.1,285.2z"/>
	<path class="st4_accountant-25" d="M342.4,278.4l7.8,4.4c0.3,0.2,0.7,0.2,1.1,0l4.5-2.6c0.5-0.3,0.7-1,0.4-1.5c-0.1-0.2-0.2-0.3-0.4-0.4l-7.8-4.4&#10;&#9;&#9;c-0.3-0.2-0.7-0.2-1.1,0l-4.5,2.6c-0.5,0.3-0.7,0.9-0.4,1.5C342.1,278.1,342.2,278.3,342.4,278.4z"/>
	<path class="st4_accountant-25" d="M331.1,271.9l7.8,4.4c0.3,0.2,0.7,0.2,1.1,0l4.5-2.6c0.5-0.3,0.7-1,0.4-1.5c-0.1-0.2-0.2-0.3-0.4-0.4l-7.8-4.4&#10;&#9;&#9;c-0.3-0.2-0.7-0.2-1.1,0l-4.5,2.6c-0.5,0.3-0.7,1-0.4,1.5C330.8,271.7,331,271.8,331.1,271.9z"/>
	<path class="st4_accountant-25" d="M364.5,279.5l7.8,4.4c0.3,0.2,0.7,0.2,1.1,0l4.5-2.6c0.5-0.3,0.7-1,0.4-1.5c-0.1-0.2-0.2-0.3-0.4-0.4L370,275&#10;&#9;&#9;c-0.3-0.2-0.7-0.2-1.1,0l-4.5,2.6c-0.5,0.3-0.7,0.9-0.5,1.4C364.1,279.3,364.3,279.4,364.5,279.5z"/>
	<path class="st4_accountant-25" d="M352.7,273.1l7.8,4.4c0.3,0.2,0.7,0.2,1.1,0l4.5-2.6c0.5-0.3,0.7-1,0.4-1.5c-0.1-0.2-0.2-0.3-0.4-0.4l-7.8-4.4&#10;&#9;&#9;c-0.3-0.2-0.7-0.2-1.1,0l-4.5,2.6c-0.5,0.3-0.7,1-0.4,1.5C352.4,272.9,352.5,273,352.7,273.1z"/>
	<path class="st4_accountant-25" d="M354.4,285.6l7.8,4.4c0.3,0.2,0.7,0.2,1.1,0l4.5-2.6c0.5-0.3,0.7-0.9,0.4-1.5c-0.1-0.2-0.2-0.3-0.4-0.4&#10;&#9;&#9;l-7.8-4.4c-0.3-0.2-0.7-0.2-1.1,0l-4.5,2.6c-0.5,0.3-0.7,0.9-0.4,1.5C354.1,285.4,354.3,285.6,354.4,285.6z"/>
	<path class="st4_accountant-25" d="M320.9,278.4l7.8,4.4c0.3,0.2,0.7,0.2,1.1,0l4.5-2.6c0.5-0.3,0.7-0.9,0.4-1.5c-0.1-0.2-0.2-0.3-0.4-0.4&#10;&#9;&#9;l-7.8-4.4c-0.3-0.2-0.7-0.2-1.1,0l-4.5,2.6c-0.5,0.3-0.7,0.9-0.4,1.5C320.6,278.1,320.7,278.3,320.9,278.4z"/>
	<path class="st4_accountant-25" d="M344.3,291.8l7.8,4.4c0.3,0.2,0.7,0.2,1.1,0l4.5-2.6c0.5-0.3,0.7-0.9,0.4-1.5c-0.1-0.2-0.2-0.3-0.4-0.4&#10;&#9;&#9;l-7.8-4.4c-0.3-0.2-0.7-0.2-1.1,0l-4.5,2.6c-0.5,0.3-0.7,1-0.4,1.5C344,291.5,344.1,291.7,344.3,291.8z"/>
	<path class="st4_accountant-25" d="M310.8,284.1l7.8,4.4c0.3,0.2,0.7,0.2,1.1,0l4.5-2.6c0.5-0.3,0.7-0.9,0.4-1.5c-0.1-0.2-0.2-0.3-0.4-0.4&#10;&#9;&#9;l-7.8-4.4c-0.3-0.2-0.7-0.2-1.1,0l-4.5,2.6c-0.5,0.3-0.7,0.9-0.4,1.5C310.5,283.9,310.6,284,310.8,284.1z"/>
	<path class="st4_accountant-25" d="M322.8,290.8l7.8,4.4c0.3,0.2,0.7,0.2,1.1,0l4.5-2.6c0.5-0.3,0.7-0.9,0.4-1.5c-0.1-0.2-0.2-0.3-0.4-0.4&#10;&#9;&#9;l-7.8-4.4c-0.3-0.2-0.7-0.2-1.1,0l-4.5,2.7c-0.5,0.3-0.7,1-0.3,1.5C322.5,290.6,322.6,290.7,322.8,290.8z"/>
	<path class="st4_accountant-25" d="M334.7,297.2l7.8,4.4c0.3,0.2,0.7,0.2,1.1,0l4.5-2.6c0.5-0.3,0.7-0.9,0.4-1.5c-0.1-0.2-0.2-0.3-0.4-0.4&#10;&#9;&#9;l-7.8-4.4c-0.3-0.2-0.7-0.2-1.1,0l-4.5,2.6c-0.5,0.3-0.7,0.9-0.4,1.5C334.4,297,334.5,297.2,334.7,297.2z"/>
</g>
<g id="coin2_accountant-25">
	<path class="st8_accountant-25" d="M359.1,122.1c-4.5,2.5-8.5,5.8-11.8,9.8c-5.2,6.4,17.6,1.9,17.6,1.9"/>
	<ellipse transform="matrix(0.703 -0.7112 0.7112 0.703 8.5002 307.5321)" class="st8_accountant-25" cx="372.5" cy="143.6" rx="23.3" ry="25.5"/>
	<ellipse transform="matrix(0.703 -0.7112 0.7112 0.703 3.6871 304.8915)" class="st9_accountant-25" cx="366.9" cy="148" rx="23.3" ry="25.5"/>
	<path class="st8_accountant-25" d="M368.9,169.9H368c-5.9-0.3-11.6-2.8-15.8-7l0,0c-4.3-4.1-6.9-9.7-7.2-15.7c-0.8-10.8,7.4-20.2,18.3-21&#10;&#9;&#9;c0.8-0.1,1.7-0.1,2.5,0c12.3,0.7,22.1,10.4,22.9,22.7c0.8,10.8-7.3,20.2-18.1,21C370,169.9,369.4,169.9,368.9,169.9L368.9,169.9z&#10;&#9;&#9; M365,127.2c-10.3-0.2-18.8,8-19,18.3c0,0.6,0,1.1,0,1.7c0.3,5.7,2.8,11,6.9,15l0,0c4,4,9.4,6.4,15.1,6.7&#10;&#9;&#9;c10.3,0.6,19.1-7.2,19.8-17.5c0.1-0.8,0-1.7,0-2.5c-0.8-11.7-10.2-21.1-22-21.7L365,127.2z"/>
	<path class="st8_accountant-25" d="M366,135.1c0.8,0,1.5,0.1,2.2,0.3l0.7,0.3l-1.3,4.2l-0.7-0.3c-0.6-0.1-1.1-0.2-1.7-0.1c-0.8,0-1.6,0.2-2.3,0.5&#10;&#9;&#9;c-0.8,0.3-1.4,0.9-1.8,1.7c-0.3,0.6-0.3,1.4,0,2c0.4,0.7,1.1,1.2,1.9,1.2c1,0.1,2.1,0,3.1-0.2c1.1-0.2,2.3-0.4,3.5-0.5&#10;&#9;&#9;c1.2-0.1,2.4,0.1,3.5,0.6c1.2,0.6,2.2,1.6,2.8,2.9c0.8,1.5,1,3.2,0.5,4.9c-0.5,1.7-1.6,3.3-3.1,4.3l1.4,2.9l-3.9,1.9l-1.4-2.8&#10;&#9;&#9;c-0.8,0.3-1.7,0.4-2.5,0.5c-0.7,0.1-1.5,0.1-2.2,0c-0.6-0.1-1.1-0.2-1.7-0.3c-0.4-0.1-0.8-0.2-1.1-0.3l-0.4-0.2l1.4-4&#10;&#9;&#9;c0.2,0.1,0.5,0.2,0.9,0.3c0.7,0.2,1.4,0.2,2.1,0.2c1,0,2.1-0.2,3-0.7c0.9-0.4,1.7-1.1,2.2-2c0.4-0.7,0.4-1.6,0-2.4&#10;&#9;&#9;c-0.4-0.7-1.1-1.2-1.9-1.2c-1-0.1-2.1,0-3.1,0.2c-1.2,0.2-2.3,0.4-3.5,0.5c-1.2,0.1-2.4-0.1-3.5-0.6c-1.2-0.6-2.2-1.6-2.8-2.9&#10;&#9;&#9;c-0.7-1.4-0.8-3-0.4-4.6c0.5-1.7,1.6-3.1,3-4.1l-1.4-2.9l3.9-1.9l1.4,2.9C363.9,135.2,365,135,366,135.1z"/>
</g>
<g id="zoom_accountant-25">
	
		<linearGradient id="SVGID_00000060015437707560640940000003322808128870034827_-accountant-25" gradientUnits="userSpaceOnUse" x1="255.0064" y1="144.7749" x2="211.0164" y2="175.6049" gradientTransform="matrix(1 0 0 -1 0 502)">
		<stop offset="0" style="stop-color:#CFE217;stop-opacity:3.000000e-02"/>
		<stop offset="0.99" style="stop-color:#2A1700"/>
	</linearGradient>
	
		<polyline style="opacity:0.32;fill:url(#SVGID_00000060015437707560640940000003322808128870034827_);enable-background:new    ;" points="&#10;&#9;&#9;219.2,319.5 274.1,354.8 257.3,371 215.3,345.2 &#9;"/>
	
		<linearGradient id="SVGID_00000144334272462502737630000016505282763741916583_-accountant-25" gradientUnits="userSpaceOnUse" x1="196.631" y1="123.6493" x2="238.201" y2="163.7493" gradientTransform="matrix(-1 0 0 -1 424.65 502)">
		<stop offset="0" style="stop-color:#CFE217;stop-opacity:3.000000e-02"/>
		<stop offset="0.99" style="stop-color:#2A1700"/>
	</linearGradient>
	<path style="opacity:0.32;fill:url(#SVGID_00000144334272462502737630000016505282763741916583_);enable-background:new    ;" d="&#10;&#9;&#9;M193.7,356.1c7.5-5.1,9-1.9,15.6-8.2l53.7,29.5l-26,16.6l-69.1-39.2C170.8,352.5,190.6,358.2,193.7,356.1z"/>
	<path class="st12_accountant-25" d="M215.5,329.2l-57.3-5c0,0-5.2,4.6-4.2,6.1l61.4,5.2C215.5,335.6,217.6,330.5,215.5,329.2z"/>
	<polygon class="st12_accountant-25" points="213.3,340.3 153.1,335.6 154.8,338 211.3,342.8 &#9;"/>
	<path class="st2_accountant-25 targetColor" d="M147,331.8c0-14.2,16.9-25.4,38.4-25.4s38.4,11.1,38.4,25.4s-16.9,25.4-38.4,25.4S147,346,147,331.8z&#10;&#9;&#9; M155.7,331.8c0,9,13.6,16.7,29.7,16.7s29.7-7.6,29.7-16.7s-13.6-16.7-29.7-16.7S155.7,322.7,155.7,331.8L155.7,331.8z" style="fill: rgb(104, 225, 253);"/>
	<path class="st2_accountant-25 targetColor" d="M215.8,341.3l47.4,28.1c6.9,4.1,0.6,14.8-6.3,10.7L209.6,352C202.7,347.9,208.9,337.2,215.8,341.3L215.8,341.3&#10;&#9;&#9;z" style="fill: rgb(104, 225, 253);"/>
</g>
<g id="coin1_accountant-25">
	<path class="st8_accountant-25" d="M434.5,175.8c-4.5-2.5-9.4-4.2-14.5-4.9c-8.1-1.1,7.6,16,7.6,16"/>
	
		<ellipse transform="matrix(0.2234 -0.9747 0.9747 0.2234 135.1582 566.7614)" class="st8_accountant-25" cx="423.3" cy="198.6" rx="25.5" ry="23.3"/>
	
		<ellipse transform="matrix(0.2234 -0.9747 0.9747 0.2234 132.2761 558.3522)" class="st9_accountant-25" cx="416.5" cy="196.2" rx="25.5" ry="23.3"/>
	<path class="st8_accountant-25" d="M415.7,218.9c-1.4,0-2.9-0.2-4.3-0.5c-5.5-1.3-10.2-4.9-12.9-9.8c-2.9-5.2-3.7-11.3-2.4-17.1l0,0&#10;&#9;&#9;c1.3-5.8,4.7-10.9,9.5-14.4c8.8-6.4,21.1-4.4,27.4,4.4c0.5,0.7,1,1.4,1.4,2.2c2.9,5.2,3.7,11.3,2.4,17.1&#10;&#9;&#9;C434.4,211.5,425.4,218.9,415.7,218.9z M417.3,174.4c-3.9,0-7.8,1.3-11,3.5c-4.7,3.3-7.9,8.2-9.1,13.8l0,0&#10;&#9;&#9;c-1.3,5.5-0.5,11.4,2.2,16.4c2.6,4.7,7,8.1,12.3,9.4c10.7,2.4,21.6-5.1,24.3-16.8c1.3-5.5,0.5-11.4-2.2-16.4&#10;&#9;&#9;c-2.6-4.7-7-8.1-12.3-9.4C420.1,174.6,418.7,174.4,417.3,174.4z"/>
	<path class="st8_accountant-25" d="M427.1,188.6c0.4,0.6,0.7,1.3,0.9,2.1l0.1,0.8l-4.2,1.1c0-0.3-0.1-0.5-0.2-0.8c-0.2-0.5-0.5-1.1-0.8-1.5&#10;&#9;&#9;c-0.4-0.7-1-1.3-1.7-1.7c-0.7-0.5-1.5-0.7-2.3-0.6c-0.7,0.1-1.3,0.4-1.7,1c-0.4,0.7-0.4,1.5,0,2.2c0.5,0.9,1.1,1.8,1.8,2.5&#10;&#9;&#9;c0.8,0.9,1.5,1.8,2.3,2.8c0.7,1,1.2,2.1,1.3,3.4c0.1,1.4-0.2,2.7-1,3.9c-0.9,1.4-2.2,2.5-3.8,3c-1.8,0.5-3.6,0.4-5.3-0.3l-1.7,2.8&#10;&#9;&#9;l-3.7-2.3l1.7-2.6c-0.7-0.6-1.3-1.2-1.8-1.9c-0.4-0.6-0.8-1.2-1.2-1.9c-0.3-0.5-0.5-1-0.6-1.6c-0.1-0.4-0.2-0.7-0.3-1.1l-0.1-0.4&#10;&#9;&#9;l4.1-0.9c0,0.2,0.1,0.5,0.2,0.9c0.2,0.7,0.6,1.3,1,1.9c0.5,0.9,1.3,1.6,2.2,2.2c0.8,0.6,1.8,0.9,2.8,0.8c0.8-0.1,1.6-0.6,2-1.3&#10;&#9;&#9;c0.4-0.7,0.4-1.5,0-2.2c-0.5-0.9-1.1-1.8-1.8-2.5c-0.8-0.9-1.5-1.8-2.3-2.8c-0.7-1-1.2-2.1-1.3-3.4c-0.1-1.4,0.2-2.7,1-3.9&#10;&#9;&#9;c0.8-1.3,2.1-2.3,3.7-2.7c1.7-0.5,3.5-0.3,5.1,0.4l1.7-2.7l3.7,2.3l-1.7,2.7C425.9,186.8,426.6,187.6,427.1,188.6z"/>
</g>
<g id="charts_accountant-25">
	
		<linearGradient id="SVGID_00000049942212791284155410000003101506642913067453_-accountant-25" gradientUnits="userSpaceOnUse" x1="214.0113" y1="226.7307" x2="183.9813" y2="285.2707" gradientTransform="matrix(1 0 0 -1 0 502)">
		<stop offset="0" style="stop-color:#FFFFFF;stop-opacity:3.000000e-02"/>
		<stop offset="0.99" style="stop-color:#2A1700"/>
	</linearGradient>
	
		<polygon style="opacity:0.32;fill:url(#SVGID_00000049942212791284155410000003101506642913067453_);enable-background:new    ;" points="&#10;&#9;&#9;109.1,288.1 151.3,314 304.4,234.1 260.1,201.2 &#9;"/>
	<polygon class="st2_accountant-25 targetColor" points="109.1,171.6 260.1,87.1 260.1,201.2 109.1,288.1 &#9;" style="fill: rgb(104, 225, 253);"/>
	<polygon class="st14_accountant-25" points="229.6,94.1 229.6,116.8 143.9,163.5 143.9,142.8 &#9;"/>
	<path class="st15_accountant-25" d="M147.8,266.1V182l7.5-4.4v84.2L147.8,266.1z"/>
	<path class="st15_accountant-25" d="M173.9,251.1v-62.8l7.5-4.4v62.9L173.9,251.1z"/>
	<path class="st15_accountant-25" d="M199.8,235.8v-81.3l7.5-4.4v81.4L199.8,235.8z"/>
	<path class="st15_accountant-25" d="M231.8,217.8v-49.1l7.5-4.4v49.2L231.8,217.8z"/>
	<path class="st6_accountant-25" d="M150.4,167.3c-3.7,0-3.7,5.7,0,5.7S154.1,167.3,150.4,167.3z"/>
	<path class="st6_accountant-25" d="M175.5,175.9c-3.7,0-3.7,5.7,0,5.7S179.2,175.9,175.5,175.9z"/>
	<path class="st6_accountant-25" d="M200.9,141c-3.7,0-3.7,5.7,0,5.7S204.6,141,200.9,141z"/>
	<path class="st6_accountant-25" d="M234.4,154.6c-3.7,0-3.7,5.7,0,5.7S238.1,154.6,234.4,154.6z"/>
	<path class="st6_accountant-25" d="M175.7,179.4l-0.4-0.1c-8.7-3.3-23-8.6-24.2-8.6c0.1,0,0.2-0.1,0.3-0.2l-0.9-0.5c0.3-0.4,0.6-1,24.8,8.3&#10;&#9;&#9;l25.4-34.4l33.8,13l-0.4,0.9L201.1,145L175.7,179.4z"/>
	<path class="st6_accountant-25" d="M127.3,194.2l8.4-4.7l1.2-0.7c0.7-0.4,1-1.3,0.6-2c-0.4-0.7-1.3-1-2-0.6c0,0-0.1,0-0.1,0.1l-8.4,4.7l-1.2,0.7&#10;&#9;&#9;c-0.7,0.4-0.9,1.4-0.5,2.1C125.7,194.4,126.6,194.6,127.3,194.2L127.3,194.2z"/>
	<path class="st6_accountant-25" d="M127.3,212.5l8.4-4.7l1.2-0.7c0.7-0.4,1-1.3,0.6-2c-0.4-0.7-1.3-1-2-0.6c0,0-0.1,0-0.1,0.1l-8.4,4.7l-1.2,0.7&#10;&#9;&#9;c-0.7,0.4-0.9,1.4-0.5,2.1C125.7,212.7,126.6,212.9,127.3,212.5L127.3,212.5z"/>
	<path class="st6_accountant-25" d="M127.3,230.9l8.4-4.7l1.2-0.7c0.7-0.4,1-1.3,0.6-2c-0.4-0.7-1.3-1-2-0.6c0,0-0.1,0-0.1,0.1l-8.4,4.7l-1.2,0.7&#10;&#9;&#9;c-0.7,0.4-1,1.3-0.6,2C125.5,231,126.4,231.3,127.3,230.9C127.2,230.9,127.2,230.9,127.3,230.9L127.3,230.9z"/>
	<path class="st6_accountant-25" d="M127.3,249.2l8.4-4.7l1.2-0.7c0.7-0.4,1-1.3,0.6-2c-0.4-0.7-1.3-1-2-0.6c0,0-0.1,0-0.1,0.1l-8.4,4.7l-1.2,0.7&#10;&#9;&#9;c-0.7,0.4-1,1.3-0.6,2C125.5,249.4,126.4,249.6,127.3,249.2C127.2,249.2,127.2,249.2,127.3,249.2L127.3,249.2z"/>
	<path class="st6_accountant-25" d="M127.3,267.5l8.4-4.7l1.2-0.7c0.7-0.4,1-1.3,0.5-2.1c-0.4-0.7-1.3-0.9-2.1-0.5l-8.4,4.7l-1.2,0.7&#10;&#9;&#9;c-0.7,0.4-1,1.3-0.6,2C125.5,267.7,126.4,267.9,127.3,267.5C127.2,267.5,127.2,267.5,127.3,267.5z"/>
</g>
<g id="accountant_accountant-25">
	
		<linearGradient id="SVGID_00000060016095932555287510000002456375862682642879_-accountant-25" gradientUnits="userSpaceOnUse" x1="313.1993" y1="145.6394" x2="292.8193" y2="170.3294" gradientTransform="matrix(1 0 0 -1 0 502)">
		<stop offset="0" style="stop-color:#CFE217;stop-opacity:3.000000e-02"/>
		<stop offset="0.99" style="stop-color:#2A1700"/>
	</linearGradient>
	
		<polygon style="opacity:0.32;fill:url(#SVGID_00000060016095932555287510000002456375862682642879_);enable-background:new    ;" points="&#10;&#9;&#9;272.3,345.8 317.4,376.2 346,357.1 294.8,328.4 &#9;"/>
	<path class="st6_accountant-25" d="M258.2,157.9c0,0-14.5-9.4-15.5-11.1s-2.8,0.4-1,2.1s3.1,3.2,3.1,3.2s-2.4,3.5-1.8,5.5s0.9,2.5,2.6,3.7&#10;&#9;&#9;s3.3,0.9,5.1,0.5s3.9,2.3,3.9,2.3l4.5,4.8l5.5-8.2L258.2,157.9z"/>
	<path class="st14_accountant-25" d="M287.3,165l-26.8-8.6c0,0-5.8,7.5-4,12.3l11.7,6.4"/>
	<path class="st17_accountant-25" d="M287.3,165l-26.8-8.6c0,0-5.8,7.5-4,12.3l11.7,6.4"/>
	<path class="st18_accountant-25" d="M291.9,335.4l5.8-1.6l-0.9-7.1C296.8,326.7,290.5,327.7,291.9,335.4z"/>
	<path class="st15_accountant-25" d="M299.8,314.7c0,0,2.1,24,1.5,24.3s-6.2,0.8-6.2,0.4s-0.3-10.9-0.3-10.9s-2.8,4.6-3,7c0,0-6.7-3.8-8-6.9&#10;&#9;&#9;s2.9-15.9,4.4-16.6"/>
	<path class="st18_accountant-25" d="M277.4,348l6.6-7l-4.3-5.5C279.7,335.5,275.7,344.4,277.4,348z"/>
	<path class="st15_accountant-25" d="M287.3,320.2l3.1,28.8c0,0-5,1.7-5.9,1.6c-1.2-0.4-2.4-1-3.6-1.7l-1.1-9.6c0,0-2.9,2.9-2.3,8.7&#10;&#9;&#9;c0-0.4-4.6-1.9-5.1-2.2c-1.8-0.8-3.6-1.8-5.3-2.9c-1.8-1.2-8.3-6.6-4.8-8.7c3-1.8,12.6-1,12.6-1l0.1-11.9"/>
	<path class="st19_accountant-25" d="M298.8,216.8c-0.1-0.4,0.2-0.7,0.5-0.8c0.1,0,0.1,0,0.2,0c-1-3.2-2.1-5.8-3.2-7.1l-27.9-3.3&#10;&#9;&#9;c0,0-5.6,20-7.8,54.3c-1.7,26.7,11.4,66.3,11.4,66.3s13.5,3.4,20-3.2l-0.3-5.8c3.4,0,6.7-0.3,10.1-0.8&#10;&#9;&#9;C305.2,283.4,302.6,249.8,298.8,216.8z"/>
	<path class="st18_accountant-25" d="M292.8,321.5c-1.2-8.2-2.3-16.5-3.5-24.7c-1.1-7.9-2.8-16-2.9-24c0-7.8,2.7-15.1,4-22.7&#10;&#9;&#9;c1.3-7.4,1.6-14.9,1-22.3c-0.1-1.7-2.6-1.8-2.5,0c0.7,8.3,0.2,16.7-1.5,24.9c-1.6,7.3-3.7,14.2-3.4,21.9s1.8,15.4,2.9,23l3.5,24.7&#10;&#9;&#9;C290.6,323.9,293,323.2,292.8,321.5z"/>
	<path class="st6_accountant-25" d="M251.1,201.2c0.1-0.3,0.1-0.6,0-0.9h0.2c0.3,0,0.6,0,0.9-0.2l0.3,0.1c1.5,0.5,2.2-1.9,0.6-2.4&#10;&#9;&#9;c-1.2-0.4-2.5-0.7-3.7-1.1l-0.1-0.1c-3.5-1.3-7.1-2.4-10.7-3.1l-7-4.8c-0.5-0.4-1.2-0.3-1.6,0.2c-0.1,0.2-0.2,0.3-0.2,0.5&#10;&#9;&#9;c-0.4,1.2,2.1,3.7,2.9,4.4h0.1l0.2,0.2c0.2,0.1,0.8,0.8,1,0.8c-3.4,0.4-6.4,2.1-9.4,3.8c-0.3,0.1-0.5,0.3-0.7,0.4&#10;&#9;&#9;c-0.3,0.3-0.6,0.5-0.8,0.9c-0.5,0.7-0.2,1.4,0.6,1.4c0,0-1.9,1.4-1.3,2.4s2.9,0.5,2.9,0.5c-0.5,0.1-0.8,0.5-0.8,1&#10;&#9;&#9;c0,0.1,0.1,0.2,0.1,0.4c0.6,1.1,2.1,0.1,2.1,0.1s-0.5,1.7,0.5,2c0.5,0.1,1,0,1.5-0.2c0.9-0.2,1.9-0.4,2.8-0.7c1-0.3,2-0.5,3-0.7&#10;&#9;&#9;c1.2-0.1,2.4-0.4,3.5-0.8c0.5-0.2,1-0.4,1.5-0.6l0.9-0.4c0.1-0.1,0.7-0.4,0.8-0.3l5,1.9c1.4,0.5,3.8,2.1,5.2,1.6s0.9-3-0.6-2.4&#10;&#9;&#9;c0.3-0.1-0.3-0.2-0.5-0.2l-1.4-0.5c1.3,0.5,2.6,0.8,4,0.8c0.7,0,1.2-0.6,1.2-1.3c0-0.3-0.1-0.6-0.4-0.8&#10;&#9;&#9;C252.7,202.3,251.9,201.7,251.1,201.2z"/>
	<path class="st14_accountant-25" d="M287.3,165c0,0-15.5,0-20.9,9.8c-4.5,8.2-3.7,21.9-3.7,21.9l-17.9-1.4c0,0-5.1,2.1-3.9,8.6&#10;&#9;&#9;c0.7,3.5,18.5,5.1,28.3,7.6s27.5,3.1,30.3-2.8s2.4-29.7-0.8-36.6S287.3,165,287.3,165z"/>
	<path class="st6_accountant-25" d="M285.6,163.9c0,0-6.2,4.8-10.1,1.9s-2.9-15.3-2.9-15.3s2-3.7,9.3,0.9S285.6,163.9,285.6,163.9z"/>
	<path class="st15_accountant-25" d="M288.2,165.5l-0.2-0.3l-3.9,1.2l-0.1,0.2C285.4,166.2,286.8,165.9,288.2,165.5z"/>
	<path class="st15_accountant-25" d="M294.5,150.2c-0.5-3-1.9-5.7-4.1-7.9c-3.2-2.9-8-2.9-11.9-1.7c-4.2,1.2-7.2,4.7-7.8,9&#10;&#9;&#9;c-0.9,4.7,4.6,1.8,5.8,4.5c0.7,1.6,0.9,3.3,0.6,5c-0.4,2.8-2.1,5.5-1.8,8.4c0,1.4,0.8,2.7,2,3.5c3.3,0.5,7,0.1,10.2-0.2&#10;&#9;&#9;c2.6-0.2,7.9-0.4,8.9-3.6C297.6,163.3,294.5,150.2,294.5,150.2z"/>
</g>
</svg>