<svg id="_0382_petra" xmlns="http://www.w3.org/2000/svg" viewBox="0 0 500 500" data-imageid="petra-12" imageName="Petra" class="illustrations_image" style="width: 186px;"><defs><style>.cls-1_petra-12{opacity:.18;}.cls-1_petra-12,.cls-2_petra-12,.cls-3_petra-12{fill:#000001;}.cls-4_petra-12{fill:#a5a5a5;}.cls-5_petra-12{opacity:.15;}.cls-5_petra-12,.cls-6_petra-12{fill:#ffd200;}.cls-7_petra-12{opacity:.4;}.cls-7_petra-12,.cls-8_petra-12{fill:#fff;}.cls-8_petra-12{opacity:.26;}.cls-9_petra-12,.cls-10_petra-12,.cls-11_petra-12,.cls-12_petra-12{fill:#e6e6e6;}.cls-10_petra-12{opacity:.33;}.cls-11_petra-12{opacity:.3;}.cls-12_petra-12{opacity:.52;}.cls-13_petra-12{fill:#24285b;}.cls-3_petra-12{opacity:.1;}.cls-14_petra-12{fill:#68e1fd;}</style></defs><g id="bg_petra-12"><path class="cls-11_petra-12" d="m169.67,70.17c-64.94,16.4-116.26,68.19-131.31,134.8-11.2,49.57-1.37,100.67,73.96,119.25,162.88,40.18,338.8,26.93,359.88-53.44,21.08-80.36-18.03-218.23-111.17-226.76-53.03-4.86-132.63,11.32-191.36,26.15Z"/><circle class="cls-6_petra-12" cx="404.09" cy="81.25" r="20.78"/><circle class="cls-5_petra-12" cx="404.09" cy="81.25" r="32.49"/><path class="cls-10_petra-12" d="m455.54,197.77c-.83,0-1.63.15-2.37.42.36-1.14.56-2.36.56-3.62,0-6.62-5.37-11.99-11.99-11.99s-11.99,5.37-11.99,11.99c0,.32.02.63.05.95-1.18-.6-2.51-.95-3.93-.95-4.8,0-8.68,3.89-8.68,8.68s3.89,8.68,8.68,8.68h29.67c3.91,0,7.08-3.17,7.08-7.08s-3.17-7.08-7.08-7.08Z"/><path class="cls-12_petra-12" d="m89.43,199.59c-.83,0-1.63.15-2.37.42.36-1.14.56-2.36.56-3.62,0-6.62-5.37-11.99-11.99-11.99s-11.99,5.37-11.99,11.99c0,.32.02.63.05.95-1.18-.6-2.51-.95-3.93-.95-4.8,0-8.68,3.89-8.68,8.68s3.89,8.68,8.68,8.68h29.67c3.91,0,7.08-3.17,7.08-7.08s-3.17-7.08-7.08-7.08Z"/><path class="cls-10_petra-12" d="m272.85,81.39c-1.11.02-2.16.24-3.15.61.45-1.53.69-3.16.65-4.84-.17-8.82-7.45-15.83-16.27-15.66-8.82.17-15.83,7.45-15.66,16.27,0,.43.05.84.09,1.26-1.59-.77-3.37-1.2-5.25-1.16-6.39.12-11.46,5.4-11.34,11.78.12,6.39,5.4,11.46,11.78,11.34l39.5-.75c5.21-.1,9.35-4.4,9.25-9.61-.1-5.21-4.4-9.35-9.61-9.25Z"/></g><g id="petra_petra-12"><path class="cls-9_petra-12" d="m449.88,442.2h-38.64c-9.91,0-19.84-.01-29.76-.06-82.64-.33-165.9-1.82-248.71-1.82H50.12s23.84-28.64,22.93-51.88c-.21-5.49-3.2-9.36-3.83-14.05-1.23-9.03,1.03-20.73.91-30.27-.31-27.8,4.93-55.32,10.33-82.5,1.58-8.01,3.23-16.13,6.65-23.56,1.76-3.84,3.99-7.46,6.31-11.02,3.72-5.72,7.71-11.3,10.48-17.46.61-1.35,1.17-2.72,1.64-4.13,2.59-7.68,2.84-15.93,4.41-23.89,1.58-7.95,4.93-16.16,11.76-20.54,20.82-13.32,43.89-12.2,66.89-20.6,23.03-8.42,26.91-15.99,63.05-11.79,35.9,4.19,65.16,27.67,100.48,33.44,13.36,2.18,27.52-1.54,36.49,9.52,8.98,11.09,9.15,29.1,12.38,43.99.78,3.54,1.72,6.91,3,9.97,1.88,4.47,4.25,8.79,6.55,13.11,2.33,4.39,4.6,8.82,6.22,13.48,7.43,21.49.1,44.69.19,67.25.15,42.32,26.7,80.85,32.91,122.79Z"/><path class="cls-9_petra-12" d="m378.52,442.14c-75.8-.33-152.17-1.82-228.11-1.82h-37.82c1.64-11.63,6.32-20.39,10.73-31.05,6.34-15.32,6.43-32.14,6.86-48.59,1.27-48.33,4.54-96.59,9.81-144.66.76-6.97,1.58-14.05,4.36-20.48,9.7-22.45,38.94-29.01,63.17-25.77,25.68,3.42,49.89,13.48,76.19,11.36,17.13-1.38,42.72-9.46,58.48-1.88,5.02,2.42,9.46,6.19,12.19,11.05,2.4,4.25,3.42,9.13,4.26,13.94,6.3,35.85,4.83,72.38,5.63,108.6.77,34.78,8.51,67.33,11.69,101.75.85,9.19,1.7,18.37,2.56,27.55Z"/><rect class="cls-14_petra-12 targetColor" x="153.46" y="190.39" width="197.13" height="119.49" style="fill: rgb(253, 104, 104);"/><path class="cls-3_petra-12" d="m201.73,233.88h11.05c4.02,0,7.28,3.26,7.28,7.28v68.72h-25.62v-68.72c0-4.02,3.26-7.28,7.28-7.28Z"/><path class="cls-3_petra-12" d="m291.26,233.88h11.05c4.02,0,7.28,3.26,7.28,7.28v68.72h-25.62v-68.72c0-4.02,3.26-7.28,7.28-7.28Z"/><path class="cls-3_petra-12" d="m350.59,196.73v31.81c-58.97,6.69-123.49,18.7-197.13,38.92v-70.73h197.13Z"/><rect class="cls-14_petra-12 targetColor" x="145.18" y="314.01" width="209.64" height="24.04" style="fill: rgb(253, 104, 104);"/><rect class="cls-3_petra-12" x="145.18" y="314.01" width="209.64" height="24.04"/><rect class="cls-14_petra-12 targetColor" x="142.53" y="309.88" width="214.95" height="4.13" style="fill: rgb(253, 104, 104);"/><rect class="cls-8_petra-12" x="142.53" y="309.88" width="214.95" height="4.13"/><rect class="cls-2_petra-12" x="150.4" y="340.92" width="196.14" height="99.4"/><rect class="cls-14_petra-12 targetColor" x="150.4" y="340.92" width="196.14" height="99.4" style="fill: rgb(253, 104, 104);"/><path class="cls-3_petra-12" d="m148.33,388.42s85.02-28.62,207.39-32.82v-21.27h-207.39v54.09Z"/><rect class="cls-14_petra-12 targetColor" x="141.25" y="327.75" width="217.51" height="13.16" style="fill: rgb(253, 104, 104);"/><polygon class="cls-14_petra-12 targetColor" points="313.53 327.75 186.46 327.75 250 306 313.53 327.75" style="fill: rgb(253, 104, 104);"/><rect class="cls-8_petra-12" x="141.25" y="327.75" width="217.51" height="13.16"/><polygon class="cls-8_petra-12" points="313.53 327.75 186.46 327.75 250 306 313.53 327.75"/><polygon class="cls-7_petra-12" points="313.53 327.75 186.46 327.75 250 306 313.53 327.75"/><rect class="cls-14_petra-12 targetColor" x="145.3" y="340.92" width="16.31" height="7.82" style="fill: rgb(253, 104, 104);"/><rect class="cls-14_petra-12 targetColor" x="148.33" y="348.74" width="10.25" height="83.76" style="fill: rgb(253, 104, 104);"/><rect class="cls-14_petra-12 targetColor" x="145.3" y="432.5" width="16.31" height="7.82" style="fill: rgb(253, 104, 104);"/><rect class="cls-1_petra-12" x="145.3" y="340.92" width="16.31" height="7.82"/><rect class="cls-1_petra-12" x="145.3" y="432.5" width="16.31" height="7.82"/><rect class="cls-14_petra-12 targetColor" x="181.17" y="340.92" width="16.31" height="7.82" style="fill: rgb(253, 104, 104);"/><rect class="cls-14_petra-12 targetColor" x="184.2" y="348.74" width="10.25" height="83.76" style="fill: rgb(253, 104, 104);"/><rect class="cls-14_petra-12 targetColor" x="181.17" y="432.5" width="16.31" height="7.82" style="fill: rgb(253, 104, 104);"/><rect class="cls-1_petra-12" x="181.17" y="340.92" width="16.31" height="7.82"/><rect class="cls-1_petra-12" x="181.17" y="432.5" width="16.31" height="7.82"/><rect class="cls-14_petra-12 targetColor" x="217.04" y="340.92" width="16.31" height="7.82" style="fill: rgb(253, 104, 104);"/><rect class="cls-14_petra-12 targetColor" x="220.07" y="348.74" width="10.25" height="83.76" style="fill: rgb(253, 104, 104);"/><rect class="cls-7_petra-12" x="148.33" y="348.74" width="10.25" height="83.76"/><rect class="cls-7_petra-12" x="184.2" y="348.74" width="10.25" height="83.76"/><rect class="cls-7_petra-12" x="220.07" y="348.74" width="10.25" height="83.76"/><rect class="cls-14_petra-12 targetColor" x="217.04" y="432.5" width="16.31" height="7.82" style="fill: rgb(253, 104, 104);"/><rect class="cls-1_petra-12" x="217.04" y="340.92" width="16.31" height="7.82"/><rect class="cls-1_petra-12" x="217.04" y="432.5" width="16.31" height="7.82"/><rect class="cls-14_petra-12 targetColor" x="270.7" y="340.92" width="16.31" height="7.82" style="fill: rgb(253, 104, 104);"/><rect class="cls-14_petra-12 targetColor" x="273.73" y="348.74" width="10.25" height="83.76" style="fill: rgb(253, 104, 104);"/><rect class="cls-14_petra-12 targetColor" x="270.7" y="432.5" width="16.31" height="7.82" style="fill: rgb(253, 104, 104);"/><rect class="cls-1_petra-12" x="270.7" y="340.92" width="16.31" height="7.82"/><rect class="cls-1_petra-12" x="270.7" y="432.5" width="16.31" height="7.82"/><rect class="cls-14_petra-12 targetColor" x="306.57" y="340.92" width="16.31" height="7.82" style="fill: rgb(253, 104, 104);"/><rect class="cls-14_petra-12 targetColor" x="309.6" y="348.74" width="10.25" height="83.76" style="fill: rgb(253, 104, 104);"/><rect class="cls-14_petra-12 targetColor" x="306.57" y="432.5" width="16.31" height="7.82" style="fill: rgb(253, 104, 104);"/><rect class="cls-1_petra-12" x="306.57" y="340.92" width="16.31" height="7.82"/><rect class="cls-1_petra-12" x="306.57" y="432.5" width="16.31" height="7.82"/><rect class="cls-14_petra-12 targetColor" x="342.44" y="340.92" width="16.31" height="7.82" style="fill: rgb(253, 104, 104);"/><rect class="cls-14_petra-12 targetColor" x="345.47" y="348.74" width="10.25" height="83.76" style="fill: rgb(253, 104, 104);"/><rect class="cls-7_petra-12" x="273.73" y="348.74" width="10.25" height="83.76"/><rect class="cls-7_petra-12" x="309.6" y="348.74" width="10.25" height="83.76"/><rect class="cls-7_petra-12" x="345.47" y="348.74" width="10.25" height="83.76"/><rect class="cls-14_petra-12 targetColor" x="342.44" y="432.5" width="16.31" height="7.82" style="fill: rgb(253, 104, 104);"/><rect class="cls-1_petra-12" x="342.44" y="340.92" width="16.31" height="7.82"/><rect class="cls-1_petra-12" x="342.44" y="432.5" width="16.31" height="7.82"/><rect class="cls-14_petra-12 targetColor" x="145.3" y="210.48" width="16.31" height="7.82" style="fill: rgb(253, 104, 104);"/><rect class="cls-14_petra-12 targetColor" x="148.33" y="218.3" width="10.25" height="83.76" style="fill: rgb(253, 104, 104);"/><rect class="cls-14_petra-12 targetColor" x="145.3" y="302.06" width="16.31" height="7.82" style="fill: rgb(253, 104, 104);"/><rect class="cls-1_petra-12" x="145.3" y="210.48" width="16.31" height="7.82"/><rect class="cls-1_petra-12" x="145.3" y="302.06" width="16.31" height="7.82"/><rect class="cls-14_petra-12 targetColor" x="181.17" y="210.48" width="16.31" height="7.82" style="fill: rgb(253, 104, 104);"/><rect class="cls-14_petra-12 targetColor" x="184.2" y="218.3" width="10.25" height="83.76" style="fill: rgb(253, 104, 104);"/><rect class="cls-14_petra-12 targetColor" x="181.17" y="302.06" width="16.31" height="7.82" style="fill: rgb(253, 104, 104);"/><rect class="cls-1_petra-12" x="181.17" y="210.48" width="16.31" height="7.82"/><rect class="cls-1_petra-12" x="181.17" y="302.06" width="16.31" height="7.82"/><rect class="cls-14_petra-12 targetColor" x="217.04" y="210.48" width="16.31" height="7.82" style="fill: rgb(253, 104, 104);"/><rect class="cls-14_petra-12 targetColor" x="220.07" y="218.3" width="10.25" height="83.76" style="fill: rgb(253, 104, 104);"/><rect class="cls-7_petra-12" x="148.33" y="218.3" width="10.25" height="83.76"/><rect class="cls-7_petra-12" x="184.2" y="218.3" width="10.25" height="83.76"/><rect class="cls-7_petra-12" x="220.07" y="218.3" width="10.25" height="83.76"/><rect class="cls-14_petra-12 targetColor" x="217.04" y="302.06" width="16.31" height="7.82" style="fill: rgb(253, 104, 104);"/><rect class="cls-1_petra-12" x="217.04" y="210.48" width="16.31" height="7.82"/><rect class="cls-1_petra-12" x="217.04" y="302.06" width="16.31" height="7.82"/><rect class="cls-14_petra-12 targetColor" x="270.7" y="210.48" width="16.31" height="7.82" style="fill: rgb(253, 104, 104);"/><rect class="cls-14_petra-12 targetColor" x="273.73" y="218.3" width="10.25" height="83.76" style="fill: rgb(253, 104, 104);"/><rect class="cls-14_petra-12 targetColor" x="270.7" y="302.06" width="16.31" height="7.82" style="fill: rgb(253, 104, 104);"/><rect class="cls-1_petra-12" x="270.7" y="210.48" width="16.31" height="7.82"/><rect class="cls-1_petra-12" x="270.7" y="302.06" width="16.31" height="7.82"/><rect class="cls-14_petra-12 targetColor" x="306.57" y="210.48" width="16.31" height="7.82" style="fill: rgb(253, 104, 104);"/><rect class="cls-14_petra-12 targetColor" x="309.6" y="218.3" width="10.25" height="83.76" style="fill: rgb(253, 104, 104);"/><rect class="cls-14_petra-12 targetColor" x="306.57" y="302.06" width="16.31" height="7.82" style="fill: rgb(253, 104, 104);"/><rect class="cls-1_petra-12" x="306.57" y="210.48" width="16.31" height="7.82"/><rect class="cls-1_petra-12" x="306.57" y="302.06" width="16.31" height="7.82"/><rect class="cls-14_petra-12 targetColor" x="342.44" y="210.48" width="16.31" height="7.82" style="fill: rgb(253, 104, 104);"/><rect class="cls-14_petra-12 targetColor" x="345.47" y="218.3" width="10.25" height="83.76" style="fill: rgb(253, 104, 104);"/><rect class="cls-7_petra-12" x="273.73" y="218.3" width="10.25" height="83.76"/><rect class="cls-7_petra-12" x="309.6" y="218.3" width="10.25" height="83.76"/><rect class="cls-7_petra-12" x="345.47" y="218.3" width="10.25" height="83.76"/><rect class="cls-14_petra-12 targetColor" x="342.44" y="302.06" width="16.31" height="7.82" style="fill: rgb(253, 104, 104);"/><rect class="cls-1_petra-12" x="342.44" y="210.48" width="16.31" height="7.82"/><rect class="cls-1_petra-12" x="342.44" y="302.06" width="16.31" height="7.82"/><rect class="cls-1_petra-12" x="238.26" y="380.79" width="28.82" height="59.53"/><path class="cls-1_petra-12" d="m170.03,390.62h3.48c2.62,0,4.74,2.13,4.74,4.74v17.1h-12.97v-17.1c0-2.62,2.13-4.74,4.74-4.74Z"/><path class="cls-1_petra-12" d="m329.92,390.62h3.48c2.62,0,4.74,2.13,4.74,4.74v17.1h-12.97v-17.1c0-2.62,2.13-4.74,4.74-4.74Z"/><path class="cls-1_petra-12" d="m170.03,269.27h3.48c2.62,0,4.74,2.13,4.74,4.74v17.1h-12.97v-17.1c0-2.62,2.13-4.74,4.74-4.74Z"/><path class="cls-1_petra-12" d="m329.92,269.27h3.48c2.62,0,4.74,2.13,4.74,4.74v17.1h-12.97v-17.1c0-2.62,2.13-4.74,4.74-4.74Z"/><rect class="cls-14_petra-12 targetColor" x="215.75" y="194.67" width="72.88" height="4.1" style="fill: rgb(253, 104, 104);"/><rect class="cls-7_petra-12" x="215.75" y="194.67" width="72.88" height="4.1"/><rect class="cls-14_petra-12 targetColor" x="142.01" y="198.77" width="57.43" height="12.59" style="fill: rgb(253, 104, 104);"/><rect class="cls-14_petra-12 targetColor" x="138.53" y="194.67" width="63.11" height="4.1" style="fill: rgb(253, 104, 104);"/><rect class="cls-7_petra-12" x="138.53" y="194.67" width="63.11" height="4.1"/><polygon class="cls-14_petra-12 targetColor" points="143.11 194.67 143.11 182.65 198.06 167.05 198.06 194.67 143.11 194.67" style="fill: rgb(253, 104, 104);"/><rect class="cls-14_petra-12 targetColor" x="304.57" y="198.77" width="57.43" height="12.59" transform="translate(666.56 410.14) rotate(-180)" style="fill: rgb(253, 104, 104);"/><rect class="cls-14_petra-12 targetColor" x="302.37" y="194.67" width="63.11" height="4.1" transform="translate(667.85 393.44) rotate(-180)" style="fill: rgb(253, 104, 104);"/><rect class="cls-7_petra-12" x="302.37" y="194.67" width="63.11" height="4.1" transform="translate(667.85 393.44) rotate(-180)"/><polygon class="cls-14_petra-12 targetColor" points="360.9 194.67 360.9 182.65 305.95 167.05 305.95 194.67 360.9 194.67" style="fill: rgb(253, 104, 104);"/><rect class="cls-14_petra-12 targetColor" x="217.04" y="198.77" width="69.97" height="11.7" style="fill: rgb(253, 104, 104);"/><path class="cls-14_petra-12 targetColor" d="m225.47,172.75h53.11c4.66,0,8.43,3.78,8.43,8.43v13.49h-69.97v-13.49c0-4.66,3.78-8.43,8.43-8.43Z" style="fill: rgb(253, 104, 104);"/><polygon class="cls-14_petra-12 targetColor" points="143.11 194.67 143.11 182.65 198.06 167.05 198.06 194.67 143.11 194.67" style="fill: rgb(253, 104, 104);"/><polygon class="cls-14_petra-12 targetColor" points="360.9 194.67 360.9 182.65 305.95 167.05 305.95 194.67 360.9 194.67" style="fill: rgb(253, 104, 104);"/><path class="cls-14_petra-12 targetColor" d="m225.47,172.75h53.11c4.66,0,8.43,3.78,8.43,8.43v13.49h-69.97v-13.49c0-4.66,3.78-8.43,8.43-8.43Z" style="fill: rgb(253, 104, 104);"/><path class="cls-14_petra-12 targetColor" d="m260.66,172.75h-16.17v-13.17c0-3.94,3.47-6.98,7.37-6.46h0c2.71.36,4.9,2.36,5.5,5.03l3.29,14.6Z" style="fill: rgb(253, 104, 104);"/><path class="cls-8_petra-12" d="m260.66,172.75h-16.17v-13.17c0-3.94,3.47-6.98,7.37-6.46h0c2.71.36,4.9,2.36,5.5,5.03l3.29,14.6Z"/><path class="cls-4_petra-12" d="m410.55,238.68c-.1.34-.21.69-.31,1.03-6.47,21.67-16.58,42.76-17.31,65.38-1.6-12.35-1.26-24.95,1-37.19,2.09-11.4,5.98-22.53,7.03-34.13.55-6.05.03-12.12.04-18.18.78,3.54,1.72,6.91,3,9.97,1.88,4.47,4.25,8.79,6.55,13.11Z"/><path class="cls-4_petra-12" d="m108.22,252.66c-1.57,9.76-3.15,19.54-4.72,29.3-3.27-9.24-2.93-19.3-3.95-29.06-.93-8.82-2.99-17.55-6.13-25.84,3.72-5.72,7.71-11.3,10.48-17.46,8.45,9.25,5.62,34.98,4.32,43.06Z"/><path class="cls-4_petra-12" d="m411.24,442.2s-14.26-19.1-15.1-31.65c-.84-12.55,0-29.76,0-29.76,0,0,3.57,18.94,14.41,30.71s29.36,30.71,29.36,30.71h-28.67Z"/><polygon class="cls-4_petra-12" points="77.69 440.32 90.59 419.33 90.59 440.32 77.69 440.32"/><rect class="cls-13_petra-12" x="22.2" y="439.23" width="455.6" height="17.63" rx="6.45" ry="6.45"/></g></svg>